<?xml version="1.0" standalone="no"?>
<!DOCTYPE svg PUBLIC "-//W3C//DTD SVG 20010904//EN"
 "http://www.w3.org/TR/2001/REC-SVG-20010904/DTD/svg10.dtd">
<svg version="1.0" xmlns="http://www.w3.org/2000/svg"
 width="712.000000pt" height="712.000000pt" viewBox="0 0 712.000000 712.000000"
 preserveAspectRatio="xMidYMid meet">
<metadata>
Created by potrace 1.11, written by Peter Selinger 2001-2013
</metadata>
<g transform="translate(0.000000,712.000000) scale(0.100000,-0.100000)"
fill="#000000" stroke="none">
<path d="M658 7029 c-32 -4 -112 -32 -179 -60 -110 -47 -127 -58 -197 -128
-86 -85 -128 -150 -169 -261 l-28 -75 -3 -2905 c-2 -2085 0 -2923 8 -2970 21
-124 111 -275 223 -376 66 -59 109 -87 188 -119 147 -59 -51 -56 3089 -53
2680 3 2880 5 2945 21 234 57 417 242 487 492 l23 80 2 2815 c1 1597 -2 2854
-7 2905 -17 174 -71 293 -187 415 -96 101 -178 154 -306 197 l-82 28 -2875 1
c-1581 1 -2901 -2 -2932 -7z m198 -558 c60 -37 81 -128 45 -199 -33 -65 -124
-91 -198 -55 -51 24 -73 66 -73 137 0 55 3 61 39 97 36 36 42 39 97 39 40 0
69 -6 90 -19z m585 3 c44 -22 73 -92 64 -152 -23 -152 -244 -164 -284 -16 -15
57 1 112 43 152 31 28 42 32 91 32 31 0 69 -7 86 -16z m605 -17 c40 -37 54
-86 43 -151 -21 -128 -224 -142 -275 -20 -19 46 -18 80 6 128 26 55 62 75 133
76 51 0 61 -4 93 -33z m4754 -3301 c0 -2376 -1 -2456 -19 -2515 -35 -113 -107
-203 -211 -264 -105 -61 108 -57 -3005 -57 -2339 0 -2849 3 -2890 14 -122 32
-237 122 -289 224 -60 118 -56 -56 -56 2609 l0 2443 3235 0 3235 0 0 -2454z"/>
<path d="M1350 4152 c-34 -5 -87 -46 -105 -82 -19 -37 -19 -83 -1 -118 8 -15
188 -200 400 -412 212 -212 386 -389 386 -395 0 -5 -175 -185 -388 -400 -421
-423 -412 -411 -412 -522 0 -36 6 -58 21 -77 19 -25 25 -26 112 -26 l91 0 459
458 c252 251 465 469 473 484 8 15 14 48 14 73 0 44 -4 51 -64 113 -52 54
-876 878 -891 890 -9 8 -72 17 -95 14z"/>
<path d="M2763 2655 c-96 -41 -98 -211 -4 -260 26 -13 125 -15 808 -15 754 0
779 1 810 20 68 41 90 119 54 192 -39 83 11 78 -864 78 -640 -1 -778 -3 -804
-15z"/>
</g>
</svg>
